/* XPM */
static char *mksh16[] = {
"16 16 3 1",
/* colours */
"# c #F9A74B",
"* c #990000",
"  c None",
/* pixels */
"                ",
"    **  **      ",
"  **********    ",
" ***  **  **    ",
"  **  **  **    ",
"  **  **  **    ",
"  **  **  **    ",
"                ",
" #  #  ##  #  # ",
" #  # #  # #  # ",
" # #  #    #  # ",
" ##    ##  #### ",
" # #     # #  # ",
" #  # #  # #  # ",
" #  #  ##  #  # ",
"                "
};
